<?xml version="1.0" standalone="no"?>
<!DOCTYPE svg PUBLIC "-//W3C//DTD SVG 20010904//EN"
 "http://www.w3.org/TR/2001/REC-SVG-20010904/DTD/svg10.dtd">
<svg version="1.0" xmlns="http://www.w3.org/2000/svg"
 width="308.000000pt" height="259.000000pt" viewBox="0 0 308.000000 259.000000"
 preserveAspectRatio="xMidYMid meet">

<g transform="translate(0.000000,259.000000) scale(0.100000,-0.100000)"
fill="#8C4FA8" stroke="none">
<path d="M1465 2158 c-58 -32 -164 -161 -260 -318 -32 -52 -60 -97 -62 -99 -1
-2 -31 15 -65 37 -102 66 -217 122 -249 122 -52 0 -105 -35 -128 -84 -23 -46
-74 -236 -86 -320 l-8 -48 -46 7 c-291 43 -376 33 -416 -52 -15 -31 -17 -54
-12 -153 7 -131 29 -266 61 -378 l21 -76 120 -18 c66 -9 139 -20 162 -24 l41
-6 7 48 c32 236 84 452 121 501 32 43 86 67 129 59 35 -7 180 -102 264 -174
37 -31 56 -42 59 -33 11 32 141 284 186 358 66 109 131 192 162 203 40 16 86
12 122 -10 45 -28 167 -216 262 -406 l77 -155 54 46 c80 69 227 164 264 171
43 8 96 -16 129 -59 32 -42 65 -164 101 -383 15 -87 28 -161 30 -162 2 -2 45
3 97 12 51 9 121 19 156 22 l62 7 19 61 c38 125 71 334 71 460 0 75 -28 127
-81 152 -33 14 -57 16 -152 11 -61 -4 -140 -12 -175 -18 -35 -6 -65 -10 -67
-7 -2 2 -13 51 -25 108 -26 128 -57 235 -79 273 -19 34 -78 67 -120 67 -31 0
-156 -61 -255 -124 -31 -20 -58 -36 -60 -36 -2 0 -19 26 -36 58 -82 145 -226
329 -281 357 -33 18 -86 19 -114 3z"/>
<path d="M1472 1462 c-209 -321 -361 -734 -386 -1045 l-5 -67 62 7 c79 9 682
9 765 0 l63 -7 -6 62 c-27 263 -135 605 -270 855 -52 95 -153 261 -165 268 -4
3 -30 -30 -58 -73z"/>
<path d="M760 1147 c0 -2 -9 -39 -20 -82 -25 -97 -60 -300 -60 -346 0 -33 3
-35 63 -58 34 -14 94 -41 133 -61 l70 -38 19 92 c10 50 32 137 50 194 l33 103
-67 53 c-113 91 -221 161 -221 143z"/>
<path d="M2134 1071 c-60 -43 -119 -90 -132 -103 -21 -24 -22 -26 -7 -68 20
-56 61 -209 75 -280 l10 -55 98 47 c53 27 114 54 135 60 l38 12 -6 50 c-22
176 -73 407 -91 413 -6 2 -60 -32 -120 -76z"/>
<path d="M335 543 c39 -68 93 -139 158 -207 49 -52 59 -58 84 -53 23 6 156 27
321 53 65 10 33 43 -114 117 -102 51 -228 93 -351 116 -59 12 -112 21 -116 21
-5 0 3 -21 18 -47z"/>
<path d="M2620 569 c-140 -28 -275 -74 -386 -133 -72 -39 -100 -58 -102 -74
-4 -24 -15 -21 173 -51 72 -12 143 -24 158 -27 26 -6 35 0 88 57 86 90 197
251 172 248 -5 0 -51 -9 -103 -20z"/>
</g>
</svg>
