<?xml version="1.0" standalone="no"?>
<!DOCTYPE svg PUBLIC "-//W3C//DTD SVG 20010904//EN"
 "http://www.w3.org/TR/2001/REC-SVG-20010904/DTD/svg10.dtd">
<svg version="1.0" xmlns="http://www.w3.org/2000/svg"
 width="1200.000000pt" height="490.000000pt" viewBox="0 0 1200.000000 490.000000"
 preserveAspectRatio="xMidYMid meet">

<g transform="translate(0.000000,490.000000) scale(0.100000,-0.100000)"
fill="#fc037b" stroke="none">
<path d="M5945 4468 c-58 -32 -164 -161 -260 -318 -32 -52 -60 -97 -62 -99 -1
-2 -31 15 -65 37 -102 66 -217 122 -249 122 -52 0 -105 -35 -128 -84 -23 -46
-74 -236 -86 -320 l-8 -48 -46 7 c-291 43 -376 33 -416 -52 -15 -31 -17 -54
-12 -153 7 -131 29 -266 61 -378 l21 -76 120 -18 c66 -9 139 -20 162 -24 l41
-6 7 48 c32 236 84 452 121 501 32 43 86 67 129 59 35 -7 180 -102 264 -174
37 -31 56 -42 59 -33 11 32 141 284 186 358 66 109 131 192 162 203 40 16 86
12 122 -10 45 -28 167 -216 262 -406 l77 -155 54 46 c80 69 227 164 264 171
43 8 96 -16 129 -59 32 -42 65 -164 101 -383 15 -87 28 -161 30 -162 2 -2 45
3 97 12 51 9 121 19 156 22 l62 7 19 61 c38 125 71 334 71 460 0 75 -28 127
-81 152 -33 14 -57 16 -152 11 -61 -4 -140 -12 -175 -18 -35 -6 -65 -10 -67
-7 -2 2 -13 51 -25 108 -26 128 -57 235 -79 273 -19 34 -78 67 -120 67 -31 0
-156 -61 -255 -124 -31 -20 -58 -36 -60 -36 -2 0 -19 26 -36 58 -82 145 -226
329 -281 357 -33 18 -86 19 -114 3z"/>
<path d="M5952 3772 c-209 -321 -361 -734 -386 -1045 l-5 -67 62 7 c79 9 682
9 765 0 l63 -7 -6 62 c-27 263 -135 605 -270 855 -52 95 -153 261 -165 268 -4
3 -30 -30 -58 -73z"/>
<path d="M5240 3457 c0 -2 -9 -39 -20 -82 -25 -97 -60 -300 -60 -346 0 -33 3
-35 63 -58 34 -14 94 -41 133 -61 l70 -38 19 92 c10 50 32 137 50 194 l33 103
-67 53 c-113 91 -221 161 -221 143z"/>
<path d="M6614 3381 c-60 -43 -119 -90 -132 -103 -21 -24 -22 -26 -7 -68 20
-56 61 -209 75 -280 l10 -55 98 47 c53 27 114 54 135 60 l38 12 -6 50 c-22
176 -73 407 -91 413 -6 2 -60 -32 -120 -76z"/>
<path d="M4815 2853 c39 -68 93 -139 158 -207 49 -52 59 -58 84 -53 23 6 156
27 321 53 65 10 33 43 -114 117 -102 51 -228 93 -351 116 -59 12 -112 21 -116
21 -5 0 3 -21 18 -47z"/>
<path d="M7100 2879 c-140 -28 -275 -74 -386 -133 -72 -39 -100 -58 -102 -74
-4 -24 -15 -21 173 -51 72 -12 143 -24 158 -27 26 -6 35 0 88 57 86 90 197
251 172 248 -5 0 -51 -9 -103 -20z"/>
<path d="M5022 1477 c-6 -7 -13 -24 -16 -39 -2 -14 -9 -35 -14 -45 -5 -10 -12
-42 -15 -72 -4 -29 -13 -72 -21 -95 -8 -22 -31 -95 -52 -161 -20 -66 -65 -207
-101 -313 -35 -107 -63 -203 -61 -215 3 -19 10 -22 74 -25 l71 -4 30 89 c43
125 98 304 123 401 12 45 26 82 31 82 5 0 9 -2 9 -4 0 -3 22 -76 50 -163 27
-87 50 -161 50 -164 0 -10 -50 -29 -77 -29 -54 0 -159 -85 -148 -120 14 -43
98 -38 188 10 31 16 60 30 65 30 4 0 14 -17 21 -37 7 -21 20 -53 28 -71 14
-30 18 -32 52 -26 72 12 101 27 101 50 0 13 -21 80 -46 151 -25 70 -54 153
-64 183 -26 76 -109 308 -125 350 -8 19 -14 47 -15 62 0 39 -17 78 -34 78 -8
0 -20 17 -26 38 -21 63 -54 88 -78 59z"/>
<path d="M9062 1477 c-6 -7 -13 -24 -16 -39 -2 -14 -9 -35 -14 -45 -5 -10 -12
-42 -15 -72 -4 -29 -13 -72 -21 -95 -8 -22 -31 -95 -52 -161 -20 -66 -65 -207
-101 -313 -35 -107 -63 -203 -61 -215 3 -19 10 -22 74 -25 l71 -4 30 89 c43
125 98 304 123 401 12 45 26 82 31 82 5 0 9 -2 9 -4 0 -3 22 -76 50 -163 27
-87 50 -161 50 -164 0 -10 -50 -29 -77 -29 -54 0 -159 -85 -148 -120 14 -43
98 -38 188 10 31 16 60 30 65 30 4 0 14 -17 21 -37 7 -21 20 -53 28 -71 14
-30 18 -32 52 -26 72 12 101 27 101 50 0 13 -21 80 -46 151 -25 70 -54 153
-64 183 -26 76 -109 308 -125 350 -8 19 -14 47 -15 62 0 39 -17 78 -34 78 -8
0 -20 17 -26 38 -21 63 -54 88 -78 59z"/>
<path d="M4093 1468 c-11 -19 -21 -122 -13 -133 4 -5 10 -189 13 -407 4 -346
7 -401 21 -423 17 -26 31 -31 41 -15 3 6 17 10 29 10 13 0 34 8 46 18 20 16
22 26 23 156 1 132 2 139 23 153 13 8 33 13 45 11 24 -3 27 -8 139 -209 38
-70 80 -134 93 -142 22 -14 26 -13 65 20 35 29 41 39 36 60 -10 39 -51 119
-126 246 -39 65 -66 122 -62 126 5 5 40 29 77 56 l68 48 -7 41 c-4 22 -7 51
-6 62 1 14 -9 29 -26 40 -15 9 -58 47 -97 84 -147 139 -203 182 -222 171 -13
-6 -26 -5 -43 5 -14 7 -35 13 -47 14 -12 0 -25 5 -28 10 -9 14 -32 12 -42 -2z
m265 -292 c34 -33 62 -66 62 -72 0 -6 -25 -29 -56 -50 -90 -62 -102 -69 -111
-60 -8 7 -9 72 -5 215 l2 64 23 -19 c12 -10 50 -45 85 -78z"/>
<path d="M9653 1468 c-11 -19 -21 -122 -13 -133 4 -5 10 -189 13 -407 4 -346
7 -401 21 -423 17 -26 31 -31 41 -15 3 6 17 10 29 10 13 0 34 8 46 18 20 16
22 26 23 156 1 132 2 139 23 153 13 8 33 13 45 11 24 -3 27 -8 139 -209 38
-70 80 -134 93 -142 22 -14 26 -13 65 20 35 29 41 39 36 60 -10 39 -51 119
-126 246 -39 65 -66 122 -62 126 5 5 40 29 77 56 l68 48 -7 41 c-4 22 -7 51
-6 62 1 14 -9 29 -26 40 -15 9 -58 47 -97 84 -147 139 -203 182 -222 171 -13
-6 -26 -5 -43 5 -14 7 -35 13 -47 14 -12 0 -25 5 -28 10 -9 14 -32 12 -42 -2z
m265 -292 c34 -33 62 -66 62 -72 0 -6 -25 -29 -56 -50 -90 -62 -102 -69 -111
-60 -8 7 -9 72 -5 215 l2 64 23 -19 c12 -10 50 -45 85 -78z"/>
<path d="M10510 1466 c-14 -8 -44 -17 -66 -21 l-42 -6 -6 -62 c-9 -81 2 -879
12 -889 4 -4 25 -3 47 2 22 5 54 10 71 10 39 0 52 15 208 225 69 94 137 184
151 201 14 18 25 35 25 40 0 4 9 17 19 28 43 47 38 64 -49 156 -44 47 -109
118 -143 159 -53 64 -178 172 -196 171 -3 -1 -17 -7 -31 -14z m125 -275 c42
-49 90 -98 106 -110 47 -35 47 -37 -96 -226 -87 -117 -90 -119 -96 -90 -10 48
-10 515 0 515 5 0 44 -40 86 -89z"/>
<path d="M1219 1465 c-3 -2 -27 -6 -54 -8 l-48 -3 0 -449 c0 -308 3 -458 11
-477 10 -25 12 -26 54 -15 24 5 53 11 66 11 20 1 22 6 23 66 0 36 3 76 5 90 5
27 61 90 80 90 7 0 50 -48 96 -107 136 -175 129 -169 164 -150 16 9 44 22 62
31 18 8 35 22 38 30 5 14 -61 108 -176 251 -65 81 -70 66 78 237 37 43 42 55
42 96 0 43 -4 49 -39 75 -22 15 -43 27 -48 27 -16 0 -246 141 -287 177 -37 31
-56 39 -67 28z m143 -242 c73 -31 138 -71 138 -85 0 -5 -49 -60 -109 -121
-126 -129 -132 -128 -113 8 7 44 12 113 12 153 0 40 2 72 4 72 3 0 33 -12 68
-27z"/>
<path d="M2091 1435 c-61 -70 -222 -315 -272 -413 l-31 -63 41 -47 c23 -26 60
-74 83 -107 23 -33 62 -85 87 -117 25 -31 66 -82 91 -113 69 -88 66 -85 118
-79 76 9 92 14 92 28 0 23 -100 161 -219 303 -61 73 -111 139 -111 145 0 20
76 140 170 271 47 65 91 127 98 137 8 11 11 23 8 29 -6 9 -104 61 -117 61 -4
0 -21 -16 -38 -35z"/>
<path d="M6351 1435 c-61 -70 -222 -315 -272 -413 l-31 -63 41 -47 c23 -26 60
-74 83 -107 23 -33 62 -85 87 -117 25 -31 66 -82 91 -113 69 -88 66 -85 118
-79 76 9 92 14 92 28 0 23 -100 161 -219 303 -61 73 -111 139 -111 145 0 20
76 140 170 271 47 65 91 127 98 137 8 11 11 23 8 29 -6 9 -104 61 -117 61 -4
0 -21 -16 -38 -35z"/>
<path d="M8535 1460 c-6 -10 -46 -11 -174 -6 -198 9 -205 7 -195 -66 11 -79
13 -80 155 -80 69 1 130 -3 137 -7 9 -5 -11 -55 -72 -182 -46 -96 -109 -232
-140 -304 -32 -71 -68 -151 -81 -176 -19 -34 -23 -55 -19 -79 12 -56 26 -59
254 -52 l205 7 14 59 c21 88 18 90 -130 96 -111 4 -124 7 -121 23 6 35 125
306 218 495 91 185 110 236 95 260 -10 17 -136 27 -146 12z"/>
<path d="M6745 1450 c-67 -7 -76 -14 -69 -53 5 -28 52 -184 116 -387 20 -66
42 -157 79 -333 31 -149 56 -194 99 -179 24 8 33 30 56 137 31 146 98 405 104
405 7 0 48 -154 95 -355 41 -174 50 -201 72 -209 23 -9 31 0 46 57 8 28 40
144 72 257 82 298 103 373 137 485 16 55 31 108 34 117 4 13 -7 21 -49 34 -30
9 -61 14 -69 11 -16 -6 -40 -81 -99 -317 -42 -169 -45 -177 -54 -168 -10 10
-75 278 -75 308 0 16 -7 35 -15 43 -10 10 -13 25 -9 45 5 25 2 32 -17 42 -13
7 -34 23 -48 36 -14 13 -30 23 -35 21 -13 -4 -61 -147 -95 -286 -59 -235 -57
-233 -85 -121 -17 68 -99 334 -118 383 -13 34 -13 34 -73 27z"/>
<path d="M7793 1385 c-74 -74 -75 -76 -58 -95 21 -24 89 -44 120 -36 12 3 45
30 74 61 l52 55 -46 45 c-25 25 -51 45 -57 45 -5 0 -44 -34 -85 -75z"/>
<path d="M3280 1438 c-25 -5 -48 -13 -51 -16 -19 -21 -16 -888 3 -907 4 -4 15
-4 25 0 10 4 27 9 38 11 11 2 35 6 53 10 l32 6 0 117 c0 64 4 121 8 128 6 9
227 93 246 93 2 0 6 -82 10 -182 4 -101 11 -186 15 -190 6 -7 131 9 140 18 5
4 1 501 -4 639 -2 39 -4 119 -4 178 l-1 108 -67 -2 c-38 -1 -71 -7 -75 -13 -4
-6 -8 -92 -8 -192 l0 -181 -27 -13 c-60 -27 -206 -80 -222 -80 -15 0 -17 18
-16 203 0 111 -4 219 -8 240 -9 41 -12 41 -87 25z"/>
<path d="M2489 1253 c-1 -104 -3 -303 -5 -443 -3 -248 3 -319 28 -304 6 4 24
8 41 9 18 2 44 8 60 14 27 10 27 11 27 102 l0 91 175 171 c190 184 209 206
218 253 5 28 1 34 -61 81 -37 27 -80 57 -97 65 -67 33 -192 103 -217 120 -18
12 -52 20 -98 24 l-70 4 -1 -187z m268 -63 c39 -22 74 -44 78 -50 5 -7 -170
-210 -181 -210 -2 0 -4 68 -4 150 0 176 -4 172 107 110z"/>
<path d="M5737 1383 c-34 -32 -100 -94 -147 -140 -81 -79 -84 -83 -83 -125 2
-32 8 -48 26 -63 13 -11 55 -45 93 -76 38 -31 92 -77 119 -102 l50 -46 -128
-123 c-70 -68 -127 -129 -127 -136 0 -7 15 -26 33 -42 62 -57 61 -58 235 106
86 82 159 158 160 168 10 54 -19 92 -149 202 -71 60 -129 113 -129 117 0 5 50
56 110 114 61 58 110 109 110 112 0 13 -83 91 -96 91 -8 0 -42 -26 -77 -57z"/>
<path d="M7773 1114 c-3 -8 -1 -80 6 -159 6 -79 11 -204 11 -278 0 -75 3 -142
6 -151 5 -12 21 -16 75 -16 l69 0 1 43 c0 23 4 94 8 157 7 107 -8 323 -24 349
-6 11 -123 71 -137 71 -5 0 -11 -7 -15 -16z"/>
<path d="M2068 1054 c-32 -19 -58 -41 -58 -48 0 -21 96 -162 115 -169 26 -11
30 -9 48 23 10 17 24 30 31 30 24 0 26 62 3 100 -29 51 -67 100 -75 99 -4 0
-33 -16 -64 -35z"/>
<path d="M6328 1054 c-32 -19 -58 -41 -58 -48 0 -21 96 -162 115 -169 26 -11
30 -9 48 23 10 17 24 30 31 30 24 0 26 62 3 100 -29 51 -67 100 -75 99 -4 0
-33 -16 -64 -35z"/>
</g>
</svg>
